<svg width="24" height="25" viewBox="0 0 24 25" fill="none" xmlns="http://www.w3.org/2000/svg">
  <path fill-rule="evenodd" clip-rule="evenodd" d="M9.5998 0.5H21.5998C22.9825 0.5 23.9998 1.51726 23.9998 2.9V14.9C23.9998 16.2827 22.9825 17.3 21.5998 17.3H16.8V22.1C16.8 23.4827 15.7827 24.5 14.4 24.5H2.4C1.01726 24.5 0 23.4827 0 22.1V10.1C0 8.71726 1.01726 7.7 2.4 7.7H7.1998V2.9C7.1998 1.51726 8.21706 0.5 9.5998 0.5ZM7.1998 10.1H2.4V22.1H14.4V17.3H9.5998C8.21706 17.3 7.1998 16.2827 7.1998 14.9V10.1ZM9.5998 2.9V14.9H21.5998V2.9H9.5998Z" fill="#0057FF"/>
</svg>
