<svg width="32" height="32" viewBox="0 0 32 32" fill="none" xmlns="http://www.w3.org/2000/svg">
<path d="M20.6665 1.33337H9.99984C8.15984 1.33337 6.6665 2.82671 6.6665 4.66671V27.3334C6.6665 29.1734 8.15984 30.6667 9.99984 30.6667H20.6665C22.5065 30.6667 23.9998 29.1734 23.9998 27.3334V4.66671C23.9998 2.82671 22.5065 1.33337 20.6665 1.33337ZM15.3332 29.3334C14.2265 29.3334 13.3332 28.44 13.3332 27.3334C13.3332 26.2267 14.2265 25.3334 15.3332 25.3334C16.4398 25.3334 17.3332 26.2267 17.3332 27.3334C17.3332 28.44 16.4398 29.3334 15.3332 29.3334ZM21.3332 24H9.33317V5.33337H21.3332V24Z" fill="#323232"/>
</svg>
